<?xml version="1.0" standalone="no"?><!DOCTYPE svg PUBLIC "-//W3C//DTD SVG 1.1//EN" "http://www.w3.org/Graphics/SVG/1.1/DTD/svg11.dtd"><svg class="icon" width="32px" height="32.00px" viewBox="0 0 1024 1024" version="1.1" xmlns="http://www.w3.org/2000/svg"><path fill="#ffffff" d="M937.6 243.2c12.4 0 22.4-10 22.4-22.4v-112c0-24.7-20.1-44.8-44.8-44.8H108.8C84.1 64 64 84.1 64 108.8v806.4c0 24.7 20.1 44.8 44.8 44.8h806.4c24.7 0 44.8-20.1 44.8-44.8V400c0-12.4-10-22.4-22.4-22.4-12.4 0-22.4 10-22.4 22.4v336H108.8V131.2c0-12.4 10-22.4 22.4-22.4h761.6c12.4 0 22.4 10 22.4 22.4v89.6c0 12.4 10 22.4 22.4 22.4z m-22.4 537.6v112c0 12.4-10 22.4-22.4 22.4H131.2c-12.4 0-22.4-10-22.4-22.4v-112h806.4z m-649.6-336v134.4c0 12.3 10.1 22.4 22.4 22.4s22.4-10.1 22.4-22.4V444.8c0-12.3-10.1-22.4-22.4-22.4s-22.4 10.1-22.4 22.4z m448-44.8v179.2c0 12.4 10 22.4 22.4 22.4s22.4-10 22.4-22.4V400c0-12.4-10-22.4-22.4-22.4s-22.4 10-22.4 22.4z m-224-134.4v313.6c0 12.3 10.1 22.4 22.4 22.4 12.3 0 22.4-10.1 22.4-22.4V265.6c0-12.3-10.1-22.4-22.4-22.4-12.3 0-22.4 10.1-22.4 22.4z"  /></svg>