<?xml version="1.0" standalone="no"?><!DOCTYPE svg PUBLIC "-//W3C//DTD SVG 1.1//EN" "http://www.w3.org/Graphics/SVG/1.1/DTD/svg11.dtd"><svg class="icon" width="200px" height="200.00px" viewBox="0 0 1024 1024" version="1.1" xmlns="http://www.w3.org/2000/svg"><path fill="#ffffff" d="M128 128v768h768.085333L896 358.997333 665.002667 128H128z m768 853.333333H128c-47.061333 0-85.333333-38.272-85.333333-85.333333V128C42.666667 80.938667 80.938667 42.666667 128 42.666667h572.373333L981.333333 323.669333V896c0 47.061333-38.272 85.333333-85.333333 85.333333zM298.666667 426.666667h256V128H298.666667v298.666667z m277.12 85.333333H277.504C242.133333 512 213.333333 483.2 213.333333 447.829333V42.666667h426.666667v405.162666c0 35.370667-28.8 64.170667-64.213333 64.170667z" /></svg>