<?xml version="1.0" standalone="no"?><!DOCTYPE svg PUBLIC "-//W3C//DTD SVG 1.1//EN" "http://www.w3.org/Graphics/SVG/1.1/DTD/svg11.dtd"><svg class="icon" width="200px" height="200.00px" viewBox="0 0 1024 1024" version="1.1" xmlns="http://www.w3.org/2000/svg"><path fill="#ffffff" d="M858.24 232.96l-132.48-133.12c-48.64-48.64-128-48.64-177.28 0l-460.8 461.44C72.32 577.28 64 597.76 64 618.88l0 211.84c0 42.24 21.76 64 64 64l213.76-1.28c21.76 0 42.24-8.96 56.96-23.68l459.52-460.8C907.52 360.96 907.52 281.6 858.24 232.96zM333.44 830.08 128 831.36 128 627.2c0-3.84 1.28-7.68 1.92-11.52 1.28 4.48 3.84 8.32 7.04 12.16l193.28 193.28c3.84 3.84 7.68 5.76 12.16 7.04C339.2 828.8 336.64 830.08 333.44 830.08zM382.08 798.72c0-7.68-3.2-14.72-8.96-20.48L179.84 584.96c-5.12-5.12-12.16-7.68-19.2-8.32l312.32-312.32 221.44 221.44L382.08 798.72zM814.08 365.44l-72.32 72.96L520.32 216.96l72.96-72.96c24.32-24.32 64-24.32 88.32 0l132.48 133.12C838.4 301.44 838.4 341.12 814.08 365.44z" /></svg>