<?xml version="1.0" standalone="no"?><!DOCTYPE svg PUBLIC "-//W3C//DTD SVG 1.1//EN" "http://www.w3.org/Graphics/SVG/1.1/DTD/svg11.dtd"><svg t="1563419873243" class="icon" viewBox="0 0 1841 1024" version="1.1" xmlns="http://www.w3.org/2000/svg" p-id="3113" xmlns:xlink="http://www.w3.org/1999/xlink" width="359.5703125" height="200"><defs><style type="text/css"></style></defs><path d="M1798.623539 6.216021c-26.925502-5.3851-59.236105 10.770201-64.621205 43.080804 0 5.3851-80.776506 339.261326-403.882531 506.199439h-5.385101c-5.3851 0-5.3851 5.3851-10.770201 5.3851s-5.3851 5.3851-10.7702 5.385101c-102.316908 48.465904-226.174217 75.391406-376.957029 75.391405C274.640121 636.27277 145.397711 65.452126 140.012611 43.911724 134.62751 16.986222 107.702008-4.554179 80.776506 0.830921 48.465904 6.216021 32.310602 38.526624 37.695703 65.452126c0 5.3851 26.925502 113.087109 102.316908 242.329519-5.3851 5.3851-10.770201 5.3851-10.770201 10.770201L5.3851 555.496264c-5.3851 10.770201-5.3851 16.155301-5.3851 21.540401v21.540402c5.3851 10.770201 16.155301 26.925502 26.925502 32.310603 10.770201 5.3851 26.925502 5.3851 43.080803 5.3851 10.770201-5.3851 26.925502-16.155301 32.310603-26.925502l102.316908-199.248715C253.09972 474.719758 317.720925 539.340963 398.497431 593.191967l-80.776506 247.714619c-5.3851 26.925502 5.3851 53.851004 32.310602 64.621205 10.770201 5.3851 26.925502 0 37.695703 0 16.155301-5.3851 26.925502-16.155301 32.310602-32.310603L495.429238 647.042971c107.702008 53.851004 242.329519 91.546707 403.882531 96.931807V970.148996c0 32.310602 21.540402 53.851004 53.851005 53.851004s53.851004-21.540402 53.851004-53.851004v-226.174218c118.472209-5.3851 215.404017-32.310602 301.565623-64.621205l64.621205 193.863615c5.3851 16.155301 16.155301 26.925502 26.925502 32.310603 10.770201 5.3851 26.925502 5.3851 43.080803 5.3851 21.540402-5.3851 37.695703-26.925502 37.695703-48.465903v-21.540402l-70.006305-210.018916c91.546707-53.851004 166.938113-118.472209 226.174217-188.478515l86.161607 166.938113c5.3851 5.3851 5.3851 10.770201 10.770201 16.155301l5.3851 5.385101c10.770201 5.3851 21.540402 10.770201 32.310603 5.3851 5.3851 0 16.155301 0 21.540401-5.3851 26.925502-16.155301 37.695703-48.465904 21.540402-70.006306l-107.702008-215.404016c96.931807-145.397711 129.24241-274.640121 129.24241-280.025222 5.3851-26.925502-10.770201-53.851004-37.695703-59.236105z" p-id="3114"></path></svg>