<?xml version="1.0" standalone="no"?><!DOCTYPE svg PUBLIC "-//W3C//DTD SVG 1.1//EN" "http://www.w3.org/Graphics/SVG/1.1/DTD/svg11.dtd"><svg class="icon" width="32px" height="32.00px" viewBox="0 0 1024 1024" version="1.1" xmlns="http://www.w3.org/2000/svg"><path fill="#ffffff" d="M513.058 927.072c-56.004 0-110.35-10.976-161.528-32.622-49.416-20.901-93.789-50.816-131.887-88.914-38.098-38.099-68.013-82.472-88.915-131.888-21.646-51.178-32.622-105.524-32.622-161.528s10.976-110.35 32.622-161.528c20.901-49.416 50.816-93.789 88.915-131.887s82.471-68.013 131.887-88.915c51.178-21.646 105.524-32.622 161.528-32.622 64.817 0 126.912 14.538 184.56 43.209 54.937 27.323 104.055 67.35 142.042 115.754 10.911 13.903 8.486 34.019-5.417 44.93-13.903 10.91-34.018 8.485-44.929-5.417-67.071-85.461-167.763-134.476-276.256-134.476-193.516 0-350.952 157.436-350.952 350.952s157.436 350.952 350.952 350.952c200.075 0 350.952-141.419 350.952-328.952 0-17.673 14.327-32 32-32s32 14.327 32 32c0 109.988-43.501 210.61-122.49 283.33-76.785 70.692-180.65 109.622-292.462 109.622z"  /><path fill="#ffffff" d="M636.555 620.593c-5.39 0-10.85-1.362-15.862-4.23-15.34-8.776-20.66-28.327-11.884-43.667L781.3 271.21c8.776-15.341 28.33-20.661 43.667-11.884 15.34 8.777 20.66 28.327 11.884 43.667L664.359 604.479c-5.908 10.327-16.703 16.114-27.804 16.114z"  /><path fill="#ffffff" d="M628.023 632.618a31.856 31.856 0 0 1-19.204-6.424L403.383 471.758c-14.127-10.62-16.97-30.681-6.35-44.807 10.62-14.127 30.68-16.97 44.807-6.35l205.437 154.438c14.127 10.619 16.97 30.68 6.35 44.807-6.289 8.363-15.888 12.772-25.604 12.772z"  /><path fill="#ffffff" d="M219.079 755.582a31.849 31.849 0 0 1-18.931-6.222c-14.238-10.47-17.293-30.499-6.823-44.737l202.489-275.372c10.468-14.239 30.499-17.294 44.737-6.823 14.238 10.47 17.293 30.499 6.823 44.737L244.885 742.537c-6.271 8.528-15.974 13.045-25.806 13.045z"  /></svg>