<?xml version="1.0" standalone="no"?><!DOCTYPE svg PUBLIC "-//W3C//DTD SVG 1.1//EN" "http://www.w3.org/Graphics/SVG/1.1/DTD/svg11.dtd"><svg class="icon" width="200px" height="200.00px" viewBox="0 0 1024 1024" version="1.1" xmlns="http://www.w3.org/2000/svg"><path fill="#ffffff" d="M264.2944 289.2288a30.8224 30.8224 0 0 0-30.4128 31.1296c0 17.2032 13.6192 31.1296 30.4128 31.1296h365.3632a30.8224 30.8224 0 0 0 30.464-31.1296 30.8224 30.8224 0 0 0-30.464-31.1296H264.2944z m121.8048 435.9168a30.8224 30.8224 0 0 0 30.464-31.1296 30.8224 30.8224 0 0 0-30.464-31.1296H264.2944a30.8224 30.8224 0 0 0-30.4128 31.1296c0 17.2032 13.6192 31.1296 30.4128 31.1296h121.8048z m60.928 124.5696H172.9536c-33.6896 0-60.928-27.8528-60.928-62.2592V226.9696c0-34.4576 27.2384-62.3104 60.928-62.3104h547.9936c33.6896 0 60.928 27.8528 60.928 62.3104v155.648c0 17.2032 13.6192 31.1808 30.4128 31.1808a30.8224 30.8224 0 0 0 30.4128-31.1296V226.9696C842.752 158.208 788.224 102.4 720.9984 102.4H173.0048C105.7792 102.4 51.2 158.208 51.2 226.9696V787.456c0 68.7616 54.5792 124.5696 121.8048 124.5696H446.976a30.8224 30.8224 0 0 0 30.464-31.1808 30.7712 30.7712 0 0 0-30.464-31.1296z m0-373.6576H264.2432a30.8224 30.8224 0 0 0-30.4128 31.1296c0 17.2032 13.6192 31.1296 30.4128 31.1296H446.976a30.8224 30.8224 0 0 0 30.464-31.1296 30.7712 30.7712 0 0 0-30.464-31.1296z m522.9568 392.8576l-47.5648-45.824a219.5456 219.5456 0 0 0 42.1888-129.024c0-120.4224-95.3856-218.0096-213.0944-218.0096-117.76 0-213.1456 97.5872-213.1456 217.9584 0 120.4224 95.4368 218.0096 213.1456 218.0096 47.36 0 90.7776-16.384 126.1568-43.1104l47.5648 45.824a31.1296 31.1296 0 0 0 44.7488 0 32.9728 32.9728 0 0 0 0-45.824z m-218.5216-19.2c-84.1216 0-152.2688-69.632-152.2688-155.648s68.1472-155.7504 152.2688-155.7504c84.0704 0 152.2176 69.7344 152.2176 155.6992 0 86.016-68.1472 155.6992-152.2176 155.6992z" /></svg>