<?xml version="1.0" standalone="no"?><!DOCTYPE svg PUBLIC "-//W3C//DTD SVG 1.1//EN" "http://www.w3.org/Graphics/SVG/1.1/DTD/svg11.dtd"><svg class="icon" width="200px" height="200.00px" viewBox="0 0 1024 1024" version="1.1" xmlns="http://www.w3.org/2000/svg"><path fill="#ffffff" d="M430.4 64.8c48.9-0.2 97.2 9.8 142.1 29.3 43.8 17.8 83.7 44.2 117.3 77.5C723 205.5 749.5 245.3 768 289c19 45 28.7 93.3 28.7 142.1 0.3 41.7-6.7 83.2-20.9 122.5-13.4 38.6-33.4 74.6-59.3 106.2l231.3 230.7c7.8 7.7 12 18.3 11.7 29.3 0.4 22-17.1 40-39.1 40.4h-1.3c-11 0.3-21.6-3.9-29.3-11.7L659.1 717.1c-31.6 25.9-67.6 45.9-106.2 59.3-39.3 14.1-80.8 21.2-122.5 20.9-48.8 0.1-97.1-9.7-142.1-28.7-43.7-18.5-83.5-45-117.3-78.2-33.4-33.6-59.7-73.5-77.5-117.3-39.1-90.7-39.1-193.4 0-284.1 18-43.8 44.3-83.6 77.5-117.3 33.6-33.4 73.5-59.7 117.3-77.5 44.9-19.5 93.2-29.5 142.1-29.4z m0 81.5c-38.1-0.3-75.9 7.5-110.8 22.8-68.4 28.4-122.8 82.8-151.2 151.2-30.4 70.7-30.4 150.8 0 221.6 14.3 33.9 34.9 64.9 60.6 91.2 26 25.9 56.8 46.5 90.6 60.6a288.5 288.5 0 0 0 221.6 0C609.8 665 664.3 610.4 693 541.8a288.5 288.5 0 0 0 0-221.6c-14.1-34-35-64.8-61.3-90.6-26-25.9-56.8-46.5-90.6-60.6-34.8-15.2-72.6-23-110.7-22.7z m0 121.8c10.9-0.2 21.3 4.3 28.7 12.4 7.9 7.5 12.3 17.8 12.4 28.7v81.5H553c10.7-0.1 21.1 4.2 28.7 11.7 15.6 15.9 15.6 41.4 0 57.3-7.4 8-17.8 12.5-28.7 12.4h-81.5v81.5c0 10.8-4.5 21.2-12.4 28.7-15.7 15.8-41.3 15.9-57.1 0.2-7.7-7.6-12-18-11.9-28.9v-81.5h-81.5c-10.9 0.4-21.5-4.2-28.7-12.4-15.8-14.7-16.8-39.4-2.1-55.3l2.1-2.1c7.5-7.8 17.9-12 28.7-11.7H390v-81.5c-0.2-10.8 4-21.1 11.7-28.7 7.4-7.9 17.8-12.5 28.7-12.3z" /></svg>