<?xml version="1.0" standalone="no"?><!DOCTYPE svg PUBLIC "-//W3C//DTD SVG 1.1//EN" "http://www.w3.org/Graphics/SVG/1.1/DTD/svg11.dtd"><svg class="icon" width="200px" height="200.00px" viewBox="0 0 1024 1024" version="1.1" xmlns="http://www.w3.org/2000/svg"><path fill="#ffffff" d="M890.84356744 135.270978a36.91727781 36.91727781 0 0 0-33.28607036-18.76123984h-308.65265305v13.3144283a60.52012808 60.52012808 0 0 0 60.52012807 60.52012808h211.21524716v642.72376048H202.72971129V621.85280785a60.52012808 60.52012808 0 0 0-60.52012807-60.52012809H128.89515492v308.65265306a36.91727781 36.91727781 0 0 0 36.91727857 37.52247968h691.74506359a37.52247968 37.52247968 0 0 0 37.52247968-37.52247969V153.42701673a36.91727781 36.91727781 0 0 0-4.23640932-18.15603873z"  /><path fill="#ffffff" d="M406.68254281 462.07966977H312.27114325a60.52012808 60.52012808 0 0 0-60.52012807 60.52012809v13.31442831h285.04980354V237.54999432h-13.91962941a60.52012808 60.52012808 0 0 0-60.52012809 60.52012808v114.9882435L199.70370497 147.9802052a37.52247968 37.52247968 0 0 0-52.65251133-1e-8 37.52247968 37.52247968 0 0 0 0 52.65251132z m52.04731021 0z"  /></svg>