<?xml version="1.0" standalone="no"?><!DOCTYPE svg PUBLIC "-//W3C//DTD SVG 1.1//EN" "http://www.w3.org/Graphics/SVG/1.1/DTD/svg11.dtd"><svg t="1563420140223" class="icon" viewBox="0 0 1389 1024" version="1.1" xmlns="http://www.w3.org/2000/svg" p-id="6576" xmlns:xlink="http://www.w3.org/1999/xlink" width="271.2890625" height="200"><defs><style type="text/css"></style></defs><path d="M694.857143 991.085714C321.462857 991.085714 14.628571 780.141714 14.628571 512S321.462857 32.914286 694.857143 32.914286 1375.085714 243.858286 1375.085714 512 1068.251429 991.085714 694.857143 991.085714z m0-73.142857c337.554286 0 607.085714-185.307429 607.085714-405.942857 0-220.635429-269.531429-405.942857-607.085714-405.942857S87.771429 291.364571 87.771429 512c0 220.635429 269.531429 405.942857 607.085714 405.942857z m0-128a277.942857 277.942857 0 1 1 0-555.885714 277.942857 277.942857 0 0 1 0 555.885714z m0-73.142857a204.8 204.8 0 1 0 0-409.6 204.8 204.8 0 0 0 0 409.6z" p-id="6577"></path></svg>