<?xml version="1.0" standalone="no"?><!DOCTYPE svg PUBLIC "-//W3C//DTD SVG 1.1//EN" "http://www.w3.org/Graphics/SVG/1.1/DTD/svg11.dtd"><svg class="icon" width="32px" height="32.00px" viewBox="0 0 1024 1024" version="1.1" xmlns="http://www.w3.org/2000/svg"><path fill="#ffffff" d="M868.848485 1024H155.151515A116.363636 116.363636 0 0 1 38.787879 907.636364V116.363636A116.363636 116.363636 0 0 1 155.151515 0h713.69697a116.363636 116.363636 0 0 1 116.363636 116.363636v791.272728a116.363636 116.363636 0 0 1-116.363636 116.363636zM155.151515 77.575758a38.787879 38.787879 0 0 0-38.787879 38.787878v791.272728a38.787879 38.787879 0 0 0 38.787879 38.787878h713.69697a38.787879 38.787879 0 0 0 38.787879-38.787878V116.363636a38.787879 38.787879 0 0 0-38.787879-38.787878zM659.393939 752.484848H349.090909a38.787879 38.787879 0 0 1 0-77.575757h310.30303a38.787879 38.787879 0 0 1 0 77.575757zM659.393939 868.848485H349.090909a38.787879 38.787879 0 0 1 0-77.575758h310.30303a38.787879 38.787879 0 0 1 0 77.575758zM674.909091 512H356.848485a38.787879 38.787879 0 1 1 0-77.575758h318.060606a38.787879 38.787879 0 0 1 38.787879 38.787879 38.787879 38.787879 0 0 1-38.787879 38.787879zM674.909091 380.121212H356.848485a38.787879 38.787879 0 0 1-38.787879-38.787879 38.787879 38.787879 0 0 1 38.787879-38.787878h318.060606a38.787879 38.787879 0 0 1 38.787879 38.787878 38.787879 38.787879 0 0 1-38.787879 38.787879zM512 620.606061a38.787879 38.787879 0 0 1-38.787879-38.787879V341.333333a38.787879 38.787879 0 0 1 77.575758 0v240.484849a38.787879 38.787879 0 0 1-38.787879 38.787879zM519.757576 364.606061h-31.030303a38.787879 38.787879 0 0 1 0-54.303031l139.636363-139.636363a38.787879 38.787879 0 1 1 54.303031 54.30303L543.030303 356.848485zM519.757576 364.606061h-31.030303L356.848485 224.969697a38.787879 38.787879 0 1 1 54.30303-54.30303l131.878788 131.878788a46.545455 46.545455 0 0 1 7.757576 54.30303z" /></svg>