<?xml version="1.0" standalone="no"?><!DOCTYPE svg PUBLIC "-//W3C//DTD SVG 1.1//EN" "http://www.w3.org/Graphics/SVG/1.1/DTD/svg11.dtd"><svg class="icon" width="32px" height="32.00px" viewBox="0 0 1024 1024" version="1.1" xmlns="http://www.w3.org/2000/svg"><path fill="#ffffff" d="M48.241846 920.632174v-815.169054c0-34.322908 27.139043-62.160382 60.464192-62.160382H768.424249c33.325149 0 60.464192 27.93725 60.464191 62.160382V389.125987h39.910358V105.562896C868.798798 48.59086 823.79987 2.294846 768.424249 2.294846H108.706038C53.330416 2.294846 8.331488 48.59086 8.331488 105.562896v815.169054c0 56.972035 44.998928 103.26805 100.37455 103.26805h539.188931v-41.107668H108.706038c-33.424924 0-60.464192-27.93725-60.464192-62.260158z"  /><path fill="#ffffff" d="M132.95158 196.259183h445.599142v39.910358H132.95158zM132.95158 350.013836h563.933353v39.910358H132.95158zM132.95158 504.267368h232.876936v39.910358H132.95158zM943.331391 495.48709c-50.486602-50.486602-117.735555-78.324077-189.175095-78.324077S615.467803 445.000487 564.881425 495.48709c-50.486602 50.486602-78.324077 117.735555-78.324077 189.175095s27.837474 138.688493 78.324077 189.175095 117.735555 78.324077 189.175095 78.324076 138.688493-27.837474 189.175095-78.324076 78.324077-117.735555 78.324077-189.175095c0.099776-71.43954-27.737699-138.588717-78.224301-189.175095zM754.156296 912.350775c-125.518075 0-227.68859-102.170515-227.68859-227.68859S628.638221 456.973594 754.156296 456.973594s227.68859 102.170515 227.68859 227.688591-102.170515 227.68859-227.68859 227.68859z"  /><path fill="#ffffff" d="M870.69454 579.897496c-2.19507-18.358764-12.471987-28.635682-30.830751-30.830751-10.875572 1.097535-18.95742 5.387898-24.345318 12.970866L755.453382 648.044431l-60.065088-86.00682c-5.387898-7.582968-13.569522-11.873331-24.345318-12.970866-18.45854 2.19507-28.735457 12.471987-30.830751 30.830751 0 6.485433 2.19507 12.471987 6.485433 17.859885l51.983241 73.035954h-34.123356c-11.973107 1.097535-18.45854 7.084088-19.456299 17.859885 1.097535 10.875572 7.582968 16.76235 19.456299 17.859885H724.522855v27.637923h-60.065088c-11.973107 1.097535-18.45854 7.084088-19.456299 17.859885 1.097535 10.875572 7.582968 16.76235 19.456299 17.859885H724.522855V820.157849c1.097535 18.45854 11.374452 27.637923 30.830752 27.637922s29.733216-9.179382 30.830751-27.637922v-50.287051H846.249446c11.873331-1.097535 18.358764-6.984313 19.456299-17.859885-1.097535-10.775797-7.582968-16.76235-19.456299-17.859885h-60.065088v-27.637923H846.249446c11.873331-1.097535 18.358764-6.984313 19.456299-17.859885-1.097535-10.775797-7.582968-16.76235-19.456299-17.859885h-34.123356l51.983241-73.035954c4.390139-5.387898 6.585209-11.374452 6.585209-17.859885z"  /></svg>