<?xml version="1.0" standalone="no"?><!DOCTYPE svg PUBLIC "-//W3C//DTD SVG 1.1//EN" "http://www.w3.org/Graphics/SVG/1.1/DTD/svg11.dtd"><svg class="icon" width="200px" height="200.00px" viewBox="0 0 1024 1024" version="1.1" xmlns="http://www.w3.org/2000/svg"><path fill="#ffffff" d="M596.5761013 850.95483017H249.51490593a76.440382 76.440382 0 0 1-76.61032676-76.66749001V249.82544136a76.89228058 76.89228058 0 0 1 76.61032676-76.72310829h524.51906204a76.49677277 76.49677277 0 0 1 76.77872658 76.72233581l-1.2429142 346.89279557v0.11278152a28.36146354 28.36146354 0 0 0 56.55375481 0.05639076l1.13013267-346.89202308v-0.16994477A133.10691833 133.10691833 0 0 0 774.14674949 116.71929551H249.51490593A132.93774605 132.93774605 0 0 0 116.52076912 249.71265984v524.63184356a132.598629 132.598629 0 0 0 38.98301125 94.18029785c24.858284 24.97183799 58.75685692 38.98301125 94.12390708 38.92662048H596.63249206a28.24868202 28.24868202 0 1 0-0.05639076-56.49736404"  /><path fill="#ffffff" d="M899.11872102 859.31611252L791.26559448 751.57576753a169.71688271 169.71688271 0 0 0-258.07888985-218.36125376 169.71688271 169.71688271 0 0 0 218.30409051 258.19244385l107.74034499 107.7959633a28.30507278 28.30507278 0 0 0 39.94319917-39.8868084h-0.05639077zM653.24186516 766.32156563a113.05034637 113.05034637 0 1 1-0.05639077-226.10146523 113.05034637 113.05034637 0 0 1 0.05639077 226.15785599z m84.74604607-395.19727707a28.30507278 28.30507278 0 1 0 0-56.61014557l-451.9773674-0.16917229a28.30507278 28.30507278 0 0 0-1e-8 56.55298233l451.9773674 0.22633553zM455.50263596 540.33442688a28.07950973 28.07950973 0 0 0 24.4071579-42.31624603 28.24868202 28.24868202 0 0 0-24.4071579-14.12472726H286.01208878a28.24868202 28.24868202 0 0 0 0 56.38381005l169.49131965 0.05716324zM286.1248703 653.27044678a28.24868202 28.24868202 0 1 0 0 56.38381004H399.11805343a28.30507278 28.30507278 0 0 0 24.57633019-13.95478248 28.30507278 28.30507278 0 0 0-24.63272095-42.42902756H286.06847954z"  /></svg>