<?xml version="1.0" standalone="no"?><!DOCTYPE svg PUBLIC "-//W3C//DTD SVG 1.1//EN" "http://www.w3.org/Graphics/SVG/1.1/DTD/svg11.dtd"><svg class="icon" width="32px" height="32.00px" viewBox="0 0 1024 1024" version="1.1" xmlns="http://www.w3.org/2000/svg"><path fill="#ffffff" d="M476.06067 705.422222h71.87866v161.094886h-71.87866z"  /><path fill="#ffffff" d="M670.385891 919.613404c3.611993 7.223986 0 13.003175-7.946385 13.003174H361.199295c-7.946384 0-11.558377-5.779189-7.946385-13.003174l33.952734-68.989065c3.611993-7.223986 13.003175-13.003175 20.949559-13.003175h207.689594c7.946384 0 17.337566 5.779189 20.949559 13.003175l33.591535 68.989065zM788.859259 514.708995c-21.310758 0-41.537919-5.417989-60.320282-16.253969l21.671958-37.564726c12.280776 6.862787 25.283951 10.47478 38.648324 10.474779 44.788713 0 94.273016-110.526984 94.273016-185.295238 0-33.591534-10.11358-42.621517-20.22716-47.678307-15.892769-7.585185-42.260317-7.585185-70.072664-7.585185h-3.973192V187.823633h3.973192c32.869136 0 63.932275 0 88.855027 11.558378 30.340741 14.447972 45.149912 42.621517 45.149912 86.68783 0 43.343915-13.725573 97.885009-36.11993 142.673722-28.173545 55.263492-64.293474 85.965432-101.858201 85.965432M235.140741 514.708995c-37.564727 0-73.684656-30.70194-101.497002-85.965432-22.394356-44.788713-36.119929-99.329806-36.119929-142.673722 0-44.066314 14.809171-72.239859 45.149911-86.68783C167.235273 187.823633 198.298413 187.823633 231.167549 187.823633h3.973192v43.343916H231.167549c-27.812346 0-54.179894 0-70.072664 7.585185C150.981305 243.448325 140.867725 252.839506 140.867725 286.431041c0 74.768254 49.845503 185.295238 94.273016 185.295238 7.585185 0 15.17037-1.083598 22.394356-3.611993l13.003175 41.537919c-11.558377 3.250794-23.477954 5.05679-35.397531 5.05679"  /><path fill="#ffffff" d="M511.8194 747.32134c-22.033157 0-42.982716-5.417989-58.875485-15.17037l-126.780952-77.657848c-31.785538-19.504762-59.959083-63.932275-64.293474-100.774603L219.609171 176.626455c-2.528395-20.949559 3.973192-40.81552 17.337566-55.985891 13.725573-15.17037 32.869136-23.477954 53.818695-23.477954h442.107937c20.949559 0 40.093122 8.307584 53.818694 23.477954 13.725573 15.17037 19.865961 35.036332 17.337567 55.985891l-42.260318 377.092064c-4.334392 37.203527-32.507937 81.269841-64.293474 100.774603L570.694885 732.15097c-15.53157 9.391182-35.75873 14.809171-57.069488 15.17037h-1.805997z m-221.053968-606.814814c-8.668783 0-16.253968 3.250794-21.671958 9.029982s-7.585185 13.725573-6.501587 22.394356L305.213404 549.022928c2.528395 23.839153 23.116755 55.985891 43.705115 68.627866l126.780952 77.657848c9.029982 5.779189 22.394356 8.668783 36.481129 8.668783h1.444797c13.364374-0.361199 26.367549-3.250794 35.036331-8.668783L675.442681 617.650794c20.58836-12.641975 41.17672-44.788713 43.705114-68.627866l42.260318-377.092064c1.083598-8.668783-1.444797-16.615168-6.501587-22.394356-5.417989-5.779189-13.003175-9.029982-21.671958-9.029982H290.765432z"  /></svg>