<?xml version="1.0" standalone="no"?><!DOCTYPE svg PUBLIC "-//W3C//DTD SVG 1.1//EN" "http://www.w3.org/Graphics/SVG/1.1/DTD/svg11.dtd"><svg class="icon" width="32px" height="32.00px" viewBox="0 0 1024 1024" version="1.1" xmlns="http://www.w3.org/2000/svg"><path fill="#ffffff" d="M799.636471 310.658768c0-158.591678-129.0407-287.633401-287.630331-287.633401-158.602934 0-287.643634 129.0407-287.643635 287.633401 0 80.249558 33.115146 152.844802 86.288077 205.062989v485.251853l201.355558-103.143942 201.342255 103.143942V515.721757c53.145301-52.217164 86.288076-124.812408 86.288076-205.062989z m-517.749946 0c0-126.866179 103.227853-230.091985 230.119615-230.091985 126.848783 0 230.107335 103.225806 230.107335 230.091985 0 126.890738-103.258552 230.104265-230.107335 230.104265-126.891762 0.001023-230.119615-103.213527-230.119615-230.104265z m373.934781 596.216909l-115.05111-58.931063v-77.076292h-57.541416v77.076292l-115.051109 58.931063V559.386145c42.358652 24.578742 91.400504 38.903977 143.828469 38.903978 52.415685 0 101.430931-14.325235 143.815166-38.903978v347.489532zM512.00614 483.251293c95.167286 0 172.580245-77.427285 172.580245-172.591502 0-95.167286-77.412959-172.565919-172.580245-172.565919-95.179566 0-172.592525 77.398633-172.592525 172.565919 0 95.164216 77.412959 172.591502 172.592525 172.591502z m0-287.645681c63.425415 0 115.054179 51.626718 115.054179 115.054179 0 63.438718-51.627741 115.051109-115.054179 115.05111-63.46737 0-115.065436-51.612392-115.065436-115.05111 0-63.427461 51.598065-115.054179 115.065436-115.054179z" /></svg>