<?xml version="1.0" standalone="no"?><!DOCTYPE svg PUBLIC "-//W3C//DTD SVG 1.1//EN" "http://www.w3.org/Graphics/SVG/1.1/DTD/svg11.dtd"><svg class="icon" width="32px" height="32.00px" viewBox="0 0 1024 1024" version="1.1" xmlns="http://www.w3.org/2000/svg"><path fill="#ffffff" d="M950.579315 275.045263c0 111.892393-90.697675 202.590068-202.576765 202.590068L273.48114 477.635331c-111.87909 0-202.575742-90.697675-202.575742-202.590068l0-7.167237c0-111.892393 90.697675-202.590068 202.575742-202.590068l474.52141 0c111.87909 0 202.576765 90.697675 202.576765 202.590068L950.579315 275.045263zM895.59912 267.878027c0-81.516572-66.079998-147.609873-147.59657-147.609873L273.48114 120.268154c-81.516572 0-147.59657 66.093301-147.59657 147.609873l0 7.167237c0 81.516572 66.079998 147.610896 147.59657 147.610896l474.52141 0c81.516572 0 147.59657-66.093301 147.59657-147.610896L895.59912 267.878027zM840.619948 312.695768c-7.597025 0-13.745049-6.148024-13.745049-13.745049l0-7.141654c0-58.617026-50.818409-102.818737-111.462604-102.818737l-58.563814 0c-7.597025 0-13.745049-6.148024-13.745049-13.745049 0-7.597025 6.148024-13.745049 13.745049-13.745049l58.563814 0c75.05951 0 138.951679 57.234539 138.951679 130.307811l0 7.141654C854.363973 306.548768 848.21595 312.695768 840.619948 312.695768zM601.869309 188.992375l-27.490098 0c-7.597025 0-13.745049-6.148024-13.745049-13.745049 0-7.597025 6.148024-13.745049 13.745049-13.745049l27.490098 0c7.597025 0 13.745049 6.148024 13.745049 13.745049C615.614357 182.844352 609.466334 188.992375 601.869309 188.992375zM286.098505 386.347209c-65.918315 0-119.54263-53.623291-119.54263-119.54263s53.624315-119.54263 119.54263-119.54263c65.919339 0 119.543653 53.623291 119.543653 119.54263S352.017844 386.347209 286.098505 386.347209zM286.098505 202.240097c-35.596729 0-64.563458 28.966729-64.563458 64.563458s28.966729 64.563458 64.563458 64.563458c35.597753 0 64.563458-28.965705 64.563458-64.563458S321.696258 202.240097 286.098505 202.240097zM950.579315 756.109694c0 111.892393-90.697675 202.602348-202.576765 202.602348L273.48114 958.712041c-111.87909 0-202.575742-90.710978-202.575742-202.602348l0-7.167237c0-111.892393 90.697675-202.576765 202.575742-202.576765l474.52141 0c111.87909 0 202.576765 90.684372 202.576765 202.576765L950.579315 756.109694zM895.59912 748.942457c0-81.502245-66.079998-147.595546-147.59657-147.595546L273.48114 601.346911c-81.516572 0-147.59657 66.093301-147.59657 147.595546l0 7.167237c0 81.530898 66.079998 147.624199 147.59657 147.624199l474.52141 0c81.516572 0 147.59657-66.093301 147.59657-147.624199L895.59912 748.942457zM180.864766 789.103132c-7.597025 0-13.745049-6.148024-13.745049-13.745049l0-2.470261c0-4.912893-1.731434-9.771551-1.220804-14.550391 0.805342-7.570419 6.402827-13.072737 14.107299-12.214183 7.543813 0.777713 14.522762 7.54279 13.71742 15.114233-0.403183 3.811816 0.886183 7.704472 0.886183 11.650341l0 2.470261C194.608791 782.955108 188.461791 789.103132 180.864766 789.103132zM192.984804 726.150358c-2.336208 0-4.684696-0.589424-6.859221-1.824555-6.563486-3.78521-8.832156-12.216229-5.03262-18.790972 24.052812-41.691541 68.88488-67.624167 116.979248-67.624167 7.597025 0 13.745049 6.148024 13.745049 13.745049s-6.147 13.745049-13.745049 13.745049c-38.308491 0-73.999364 20.644179-93.166913 53.879118C202.354196 723.68112 197.737038 726.150358 192.984804 726.150358zM727.384977 867.411639c-65.919339 0-119.54263-53.612035-119.54263-119.54263 0-65.907059 53.623291-119.54263 119.54263-119.54263s119.54263 53.635571 119.54263 119.54263C846.92863 813.800627 793.304316 867.411639 727.384977 867.411639zM727.384977 683.304528c-35.596729 0-64.563458 28.966729-64.563458 64.564481 0 35.595706 28.966729 64.562435 64.563458 64.562435s64.563458-28.966729 64.563458-64.562435C791.948435 712.271256 762.981706 683.304528 727.384977 683.304528z" /></svg>