<?xml version="1.0" standalone="no"?><!DOCTYPE svg PUBLIC "-//W3C//DTD SVG 1.1//EN" "http://www.w3.org/Graphics/SVG/1.1/DTD/svg11.dtd"><svg class="icon" width="32px" height="32.00px" viewBox="0 0 1024 1024" version="1.1" xmlns="http://www.w3.org/2000/svg"><path fill="#ffffff" d="M608 633.6v32h166.4V332.8H608v300.8zM480 300.8v396.8a32 32 0 0 1-32 32H217.6a32 32 0 0 1-32-32V300.8a32 32 0 0 1 32-32h230.4a32 32 0 0 1 32 32z m-64 32H249.6v332.8h166.4V332.8z m422.4-32v396.8a32 32 0 0 1-32 32H576a32 32 0 0 1-32-32V300.8a32 32 0 0 1 32-32h230.4a32 32 0 0 1 32 32z m-505.6 57.6a44.8 44.8 0 1 1 0 89.6 44.8 44.8 0 0 1 0-89.6z m358.4 198.4a44.8 44.8 0 1 1 0 89.6 44.8 44.8 0 0 1 0-89.6z"  /></svg>