<?xml version="1.0" standalone="no"?><!DOCTYPE svg PUBLIC "-//W3C//DTD SVG 1.1//EN" "http://www.w3.org/Graphics/SVG/1.1/DTD/svg11.dtd"><svg class="icon" width="32px" height="32.00px" viewBox="0 0 1024 1024" version="1.1" xmlns="http://www.w3.org/2000/svg"><path fill="#ffffff" d="M646.736842 511.973053C646.736842 586.401684 586.401684 646.709895 512 646.709895 437.571368 646.709895 377.263158 586.401684 377.263158 511.973053 377.263158 437.571368 437.571368 377.236211 512 377.236211 533.962105 377.236211 554.388211 383.002947 572.712421 392.326737L970.644211 53.274947 631.592421 451.152842C640.943158 469.504 646.736842 489.984 646.736842 511.973053ZM431.157895 511.973053C431.157895 556.624842 467.348211 592.815158 512 592.815158 556.651789 592.815158 592.842105 556.624842 592.842105 511.973053 592.842105 467.321263 556.651789 431.130947 512 431.130947 467.348211 431.130947 431.157895 467.321263 431.157895 511.973053ZM512 53.867789C258.991158 53.867789 53.894737 258.964211 53.894737 511.973053 53.894737 764.981895 258.991158 970.078316 512 970.078316 765.008842 970.078316 970.105263 764.981895 970.105263 511.973053 970.105263 432.990316 950.110316 358.696421 914.917053 293.834105L950.298947 248.32C996.756211 325.416421 1024 415.420632 1024 511.973053 1024 794.758737 794.758737 1023.973053 512 1023.973053 229.214316 1023.973053 0 794.758737 0 511.973053 0 229.214316 229.214316-0.026947 512-0.026947 608.579368-0.026947 698.556632 27.216842 775.653053 73.674105L730.138947 109.056C665.276632 73.862737 590.982737 53.867789 512 53.867789Z" /></svg>