<?xml version="1.0" standalone="no"?><!DOCTYPE svg PUBLIC "-//W3C//DTD SVG 1.1//EN" "http://www.w3.org/Graphics/SVG/1.1/DTD/svg11.dtd"><svg class="icon" width="200px" height="171.38px" viewBox="0 0 1195 1024" version="1.1" xmlns="http://www.w3.org/2000/svg"><path fill="#ffffff" d="M433.485 258.997c-68.48-9.994-126.32-68.615-120.043-139.79C319.477 48.008 380.387-5.333 449.38 0.459c69.02 5.523 125.054 68.346 113.9 139.143-13.604 85.264-62.957 129.256-129.794 119.396m290.247 350.727c-9.24 1.05-20.77-4.365-29.741-11.53-50.539-39.252-140.329-163.39-175.835-11.558-16.03 116.299 3.88 205.442 159.94 400 6.924 8.458 8.729 26.4-6.411 27.074-15.248 0.646-31.681-8.432-31.681-8.432-50.512-22.199-83.351-60.938-155.442-131.6-60.802-59.267-123.625-73.869-134.132-0.755-0.539 3.718-0.646 7.301-0.646 10.75 0.404 45.77 1.158 88.226 4.903 119.557 2.182 18.48-22.064 28.071-33.594 13.2-53.233-68.615-118.507-231.653-109.914-478.635 0-43.103-42.591-48.249-169.153 104.39C5.71 685.91-24.784 661.287 29.984 541.89c0 0 121.066-243.157 368.722-237.15 173.76 15.652 266.62 145.555 324.083 261.368 5.63 11.288 9.86 20.017 11.907 26.67 2.236 7.76-2.91 16.191-10.964 16.946m191.89 32.839c-52.45 10.533-121.2-19.477-132.73-73.491-11.423-54.257 38.98-111.934 91.432-122.468s104.149 24.731 115.679 78.987c11.395 54.014-21.794 106.439-74.38 116.972m276.13-24.623c-9.375 18.48-30.55 39.87-99.03 86.18-21.551 14.628-43.992 47.467-48.221 72.71-5.011 31.842 5.01 62.715 16.271 106.977 8.217 33.486 15.921 84.267 3.745 116.298-4.769 12.204-20.663 14.52-25.916 2.479-15.248-34.51-33.46-81.223-89.386-91.353-56.573-4.364-77.855 34.133-78.744 87.204-0.377 16.19-17.43 21.417-30.523 8.459-15.248-15.652-28.367-37.958-38.496-97.845-12.689-75.7 6.68-110.83-25-134.94-22.306-17.188-119.908-30.253-163.766-78.88-8.082-8.997-2.586-22.844 9.51-24.487 52.424-6.654 143.884 20.124 296.093 2.29 113.254-14.736 203.286-67.834 252.397-85.399 16.298-5.576 31.303 9.78 21.066 30.307"  /></svg>