<?xml version="1.0" standalone="no"?><!DOCTYPE svg PUBLIC "-//W3C//DTD SVG 1.1//EN" "http://www.w3.org/Graphics/SVG/1.1/DTD/svg11.dtd"><svg class="icon" width="200px" height="200.00px" viewBox="0 0 1024 1024" version="1.1" xmlns="http://www.w3.org/2000/svg"><path fill="#ffffff" d="M512.186753 65.455781c-246.724241 0-446.708971 199.98473-446.708971 446.708971 0 246.725264 199.98473 446.709995 446.708971 446.709995 246.725264 0 446.709995-199.98473 446.709995-446.709995-0.001023-246.724241-199.98473-446.708971-446.709995-446.708971z m0 829.603545c-211.4519 0-382.89355-171.441651-382.89355-382.89355s171.441651-382.89355 382.89355-382.893551 382.89355 171.441651 382.893551 382.893551-171.441651 382.89355-382.893551 382.89355z m170.196287-559.073109l-235.818867 241.49003-100.583836-102.983489c-19.87977-20.37812-52.16201-20.37812-72.104201 0-20.004613 20.379143-20.004613 53.502541 0 73.880661l136.605238 139.970892c9.971096 10.219759 23.058159 15.267728 36.082799 15.267728 13.025665 0 26.112728-5.172813 36.083824-15.267728l271.839245-278.477433c19.87977-20.379143 19.87977-53.439096 0-73.880661-19.880793-20.37812-52.225455-20.37812-72.104202 0z"  /></svg>