<?xml version="1.0" standalone="no"?><!DOCTYPE svg PUBLIC "-//W3C//DTD SVG 1.1//EN" "http://www.w3.org/Graphics/SVG/1.1/DTD/svg11.dtd"><svg class="icon" width="200px" height="200.00px" viewBox="0 0 1024 1024" version="1.1" xmlns="http://www.w3.org/2000/svg"><path fill="#ffffff" d="M834.25976563 572.59179687c-14.08007813 0.6328125-24.99609375 12.65625-24.99609376 26.73632813v202.81640625c0 6.01171875-4.90429688 10.91601563-10.91601562 10.91601563H225.96875c-10.28320313 0-18.66796875-8.38476563-18.66796875-18.66796876V598.85351563c0-15.34570312-11.07421875-26.41992188-26.41992188-26.41992188-10.44140625 0-21.99023438 10.91601563-21.99023437 26.41992187v203.29101563c0 32.74804688 26.578125 59.32617188 59.32617188 59.32617188h593.578125c27.84375 0 50.30859375-22.46484375 50.30859375-50.30859375V598.85351563c0-15.66210938-11.70703125-27.05273438-27.84375-26.26171876z"  /><path fill="#ffffff" d="M507.5703125 642.04296875c-13.13085938 0-23.73046875-10.59960938-23.73046875-23.73046875V190.68945312c0-13.13085938 10.59960938-23.73046875 23.73046875-23.73046874s23.73046875 10.59960938 23.73046875 23.73046875v427.62304687c0 13.13085938-10.59960938 23.73046875-23.73046875 23.73046875z"  /><path fill="#ffffff" d="M698.6796875 375.47070312c-9.33398438 9.33398438-24.36328125 9.33398438-33.5390625 1e-8L496.97070312 207.45898437c-9.33398438-9.33398438-9.33398438-24.36328125 1e-8-33.53906249 9.33398438-9.33398438 24.36328125-9.33398438 33.5390625 0L698.6796875 341.93164062c9.17578125 9.17578125 9.17578125 24.20507813 0 33.53906251z"  /><path fill="#ffffff" d="M322.47265625 373.73046875c-9.33398438-9.33398438-9.33398438-24.36328125 0-33.5390625L490.484375 172.1796875c9.33398438-9.33398438 24.36328125-9.33398438 33.5390625 0 9.33398438 9.33398438 9.33398438 24.36328125 0 33.5390625L356.01171875 373.73046875c-9.17578125 9.33398438-24.20507813 9.33398438-33.5390625 0z"  /></svg>