<?xml version="1.0" standalone="no"?><!DOCTYPE svg PUBLIC "-//W3C//DTD SVG 1.1//EN" "http://www.w3.org/Graphics/SVG/1.1/DTD/svg11.dtd"><svg class="icon" width="200px" height="198.83px" viewBox="0 0 1030 1024" version="1.1" xmlns="http://www.w3.org/2000/svg"><path fill="#ffffff" d="M68.542 916.975C108.51 700.78 239.154 536.61 448.908 536.61c135.763-1.486 246.09-112.31 246.09-248.733 0-137.084-111.648-248.568-248.567-248.568-137.084 0-248.568 111.65-248.568 248.568 0 89.683 47.732 168.3 119.082 212.232-12.883 4.13-25.435 8.754-37.988 13.874-52.025 22.132-98.931 53.512-139.065 93.812-40.135 40.134-71.68 87.04-93.812 139.065-22.792 54.008-34.519 103.722-34.354 170.116 0 6.937 17.012 18.168 25.105 18.168 17.342 0 30.39-10.57 31.71-18.168z m185.972-629.099c0-105.703 86.049-191.587 191.587-191.587 105.703 0 191.587 86.05 191.587 191.587 0 105.703-86.05 191.587-191.587 191.587-105.538 0.165-191.587-85.718-191.587-191.587z"  /><path fill="#ffffff" d="M760.898 469.223c-142.864 0-259.138 116.274-259.138 259.138S618.034 987.5 760.898 987.5s258.973-116.273 258.973-259.138-116.108-259.138-258.973-259.138z m0 56.98c53.182 0 101.905 20.811 138.24 54.67L587.314 831.916c-18.003-30.39-28.573-65.569-28.573-103.39-0.166-111.815 90.673-202.323 202.157-202.323z m0 404.316c-53.182 0-101.74-20.645-137.91-54.669l311.66-251.045c18.002 30.39 28.573 65.57 28.573 103.226-0.33 111.814-90.84 202.488-202.323 202.488z"  /></svg>