<?xml version="1.0" standalone="no"?><!DOCTYPE svg PUBLIC "-//W3C//DTD SVG 1.1//EN" "http://www.w3.org/Graphics/SVG/1.1/DTD/svg11.dtd"><svg class="icon" width="200px" height="200.00px" viewBox="0 0 1024 1024" version="1.1" xmlns="http://www.w3.org/2000/svg"><path fill="#ffffff" d="M739.456 481.984 551.104 481.984 551.104 275.072c0-13.504-10.496-22.912-33.792-24.256S483.52 261.504 483.52 275.072l0 206.912L284.608 481.984c0 0-37.568-3.456-37.568 27.072 0 41.088 16.064 41.024 29.568 41.024l206.912 0-0.064 216.96c0 16.96-3.52 39.424 31.616 39.424 36.992 0 35.264-34.048 35.264-41.984l0.832-214.464 188.352 0c8.64 0 41.984 2.432 42.432-35.584S739.456 481.984 739.456 481.984zM518.592 42.048c-265.152 0-480 214.848-480 480 0 265.088 214.848 480 480 480s480-214.848 480-480S783.68 42.048 518.592 42.048zM518.592 937.984c-229.76 0-416-186.304-416-416 0-229.76 186.24-416 416-416s416 186.24 416 416C934.528 751.744 748.352 937.984 518.592 937.984z" /></svg>