<?xml version="1.0" standalone="no"?><!DOCTYPE svg PUBLIC "-//W3C//DTD SVG 1.1//EN" "http://www.w3.org/Graphics/SVG/1.1/DTD/svg11.dtd"><svg class="icon" width="200px" height="200.00px" viewBox="0 0 1024 1024" version="1.1" xmlns="http://www.w3.org/2000/svg"><path fill="#ffffff" d="M1014.92609 150.297106a130.55144 130.55144 0 0 1-34.506988 71.442247c-171.256907 140.584028-308.645843 315.099928-464.56631 471.531609a107.738487 107.738487 0 0 0-12.141348 12.780367c-65.818886 104.287788-181.4812 117.579369-282.446092 156.878994a49.779526 49.779526 0 0 1-49.20441-54.060949c17.892513-65.563278 36.424044-131.25436 55.594593-196.370326a83.07238 83.07238 0 0 1 23.004659-29.075333c147.613229-143.715217 296.504495-286.599711 443.478706-431.145652 35.146007-34.443087 65.818886-73.806615 97.769801-111.380891a96.747372 96.747372 0 0 1 151.447339-7.796024 180.330967 180.330967 0 0 1 69.013977 97.514194c1.278037 5.815067 1.917055 11.566231 3.195092 17.317396 1.917055 1.341938-2.556073 1.214135-0.639019 2.556074z m-269.026708 47.926373C602.759281 343.600144 459.61918 488.721202 319.674171 630.71107c23.643677 24.730009 50.482446 52.079992 74.126124 75.979277l431.337358-427.055935c-29.394842-30.161664-56.233611-57.511648-79.238271-81.410933z m34.506989-61.409659c35.146007 34.506989 66.457904 64.604751 102.881948 100.134169 7.029201-9.010158 13.419384-20.192979 21.726622-29.203137 61.984776-64.92426 61.984776-64.796456-3.195091-127.228545l-3.83411-4.089717a36.040633 36.040633 0 0 0-54.316556 0c-20.448586 19.170549-40.897172 38.341098-63.262813 60.38723zM249.382157 784.26717c33.228952-13.419384 58.789684-24.027088 81.155325-33.101149-16.614476-20.320782-33.86797-40.641564-51.121464-60.898445-10.224293 31.950915-19.170549 59.173095-30.033861 93.999594z m0 0l207.041932 238.226025H170.143887a161.927239 161.927239 0 0 1-133.554827-57.064335A147.613229 147.613229 0 0 1 6.5552 869.959525c0-192.152805-0.639018-384.241709 0.639018-576.394514A153.364394 153.364394 0 0 1 172.69996 128.378778c102.881948-0.639018 206.402914 0 309.284861 0 23.004659 0 44.092263 1.789251 47.287355 30.608977 1.917055 21.151506-15.336439 31.950915-48.565391 31.950915H179.729162A103.393162 103.393162 0 0 0 67.261939 305.386849v555.945929a92.84936 92.84936 0 0 0 95.852746 98.472721q293.309403 1.150233 586.618807 0a75.915375 75.915375 0 0 0 76.682197-84.222613c0.639018-126.781232 0-253.562465 0.639019-380.343697a44.411772 44.411772 0 0 1 33.86797-53.869244 63.901831 63.901831 0 0 1 26.838769 30.992388 38.341098 38.341098 0 0 1 0.639018 17.253495v377.468114a135.727489 135.727489 0 0 1-154.64243 155.66486H456.424089z m0 0" /></svg>