<?xml version="1.0" standalone="no"?><!DOCTYPE svg PUBLIC "-//W3C//DTD SVG 1.1//EN" "http://www.w3.org/Graphics/SVG/1.1/DTD/svg11.dtd"><svg class="icon" width="32px" height="32.00px" viewBox="0 0 1024 1024" version="1.1" xmlns="http://www.w3.org/2000/svg"><path d="M110 115.7h806v152.9H110z" fill="#ffffff" /><path d="M906 309H115.7c-13.8 0-25.1-11.2-25.1-25.1V125.1c0-13.8 11.2-25.1 25.1-25.1H906c13.8 0 25.1 11.2 25.1 25.1V284c0 13.8-11.3 25-25.1 25z m-765.3-50.1H881V150.1H140.7v108.8zM906 617.3H115.1c-13.8 0-25.1-11.2-25.1-25.1 0-13.8 11.2-25.1 25.1-25.1h765.8V458.4H115.1c-13.8 0-25.1-11.2-25.1-25.1 0-13.8 11.2-25.1 25.1-25.1H906c13.8 0 25.1 11.2 25.1 25.1v158.9c0 13.9-11.3 25.1-25.1 25.1z m0 0" fill="#ffffff" /><path d="M106 757.1h808v146.5H106z" fill="#ffffff" /><path d="M906 716.6H115.7c-13.8 0-25.1 11.2-25.1 25.1v158.9c0 13.8 11.2 25.1 25.1 25.1H906c13.8 0 25.1-11.2 25.1-25.1V741.7c0-13.8-11.3-25.1-25.1-25.1z m-25 158.9H140.7V766.7H881v108.8z" fill="#ffffff" /></svg>