<?xml version="1.0" standalone="no"?><!DOCTYPE svg PUBLIC "-//W3C//DTD SVG 1.1//EN" "http://www.w3.org/Graphics/SVG/1.1/DTD/svg11.dtd"><svg class="icon" width="200px" height="200.00px" viewBox="0 0 1024 1024" version="1.1" xmlns="http://www.w3.org/2000/svg"><path fill="#ffffff" d="M569.216 97.08799999a417.152 417.152 0 0 0-417.60000001 392.70400002l-63.16799999-62.59200002a32 32 0 0 0-44.416 0 30.91200001 30.91200001 0 0 0 0 44.032l115.64800001 114.49600001a31.55200001 31.55200001 0 0 0 44.41599998 0l115.71200002-114.49600001a31.04000001 31.04000001 0 0 0 0-44.03199998 32 32 0 0 0-44.416 0l-60.86400001 60.22399999a355.64800001 355.64800001 0 1 1 354.688 376.96 31.104 31.104 0 1 0 0 62.208 414.78400001 414.78400001 0 1 0 0-829.50400001z" /></svg>