<svg id="图层_1" data-name="图层 1" xmlns="http://www.w3.org/2000/svg" viewBox="0 0 222.28 68.5"><defs><style>.cls-1{fill:#00b8ff;}.cls-2{fill:#ffaf45;}</style></defs><title>logo</title><path class="cls-1" d="M67.4,179.25a34.25,34.25,0,1,1,22.69-59.9l-7.88,7.37A23.54,23.54,0,1,0,81,164.21a3.85,3.85,0,0,0,.76-5.57l-7.15-8.75q13.36-.22,26.75-.22A34.4,34.4,0,0,1,67.4,179.25Z" transform="translate(-33.16 -110.75)"/><path class="cls-2" d="M119.07,121.47a23.37,23.37,0,0,1,14.8,5.25l7.89-7.37a34.53,34.53,0,0,0-22.69-8.6,34.11,34.11,0,0,0-23.48,9.35,34.74,34.74,0,0,0-5.32,6.4,34.08,34.08,0,0,0-5.36,16.15H85l.13,0H95.68A23.63,23.63,0,0,1,119.07,121.47Z" transform="translate(-33.16 -110.75)"/><path class="cls-2" d="M126.24,149.89l7.16,8.75a3.89,3.89,0,0,1,.83,3,3.83,3.83,0,0,1-1.59,2.62,23.44,23.44,0,0,1-29.95-2.36,41.22,41.22,0,0,1-5.75,9.25,34,34,0,0,0,22.13,8.15A34.4,34.4,0,0,0,153,149.67Q139.62,149.67,126.24,149.89Z" transform="translate(-33.16 -110.75)"/><path class="cls-1" d="M163.17,127.11l-2.25-9h7l2.16,9Zm26.75,8.52H179.24v22.05h-7.15V135.63H161.21V132h10.88v-3.13h7.15V132h10.68Zm.49-20.18-29.1.49v-3.53l29.1-.49Zm-29,41.05,2.74-18.62H171l-2.74,18.62Zm10.68-29.39-2.26-9.61h7l2.35,9.61Zm8.13,10.77h6.86l2.74,18.62H183Zm10.09-20.38-2.94,9.61h-6.76l2.75-9.61Zm7.84,7.55H191l6.47-13.92h7.15Zm0,16.17H191l6.47-13.82h7.15Zm0,16.26H191l6.47-13.91h7.15Z" transform="translate(-33.16 -110.75)"/><path class="cls-1" d="M216.08,147.58h8l-5.88,8.92h-8ZM242,115.45v4.11H254.1v13.23H211.58V119.56h11.75v-4.11H210.79v-3.73h44.29v3.73Zm-31.16,30V141.7h44.29v3.73H237v12.15H226.08v-3.82h3.62v-8.33Zm1.28-10h41.54v3.73H212.07Zm11.26-6.36v-5.79h-4.9v5.79Zm11.76-9.51v-4.11h-4.9v4.11Zm0,9.51v-5.79h-4.9v5.79Zm6,18.51h8.52L255,156.5h-8.23Zm.88-24.3v5.79h5.29v-5.79Z" transform="translate(-33.16 -110.75)"/><path class="cls-1" d="M167.88,170.12h5v.4a8.35,8.35,0,0,1-.32,2.4,5.18,5.18,0,0,1-1.05,1.8,5.47,5.47,0,0,1-4.26,1.88,5.81,5.81,0,0,1-4.31-1.82,6.25,6.25,0,0,1,4.48-10.64,6.19,6.19,0,0,1,2.63.57,7.77,7.77,0,0,1,2.29,1.87L171,167.81a4.39,4.39,0,0,0-3.6-2,4.33,4.33,0,0,0-3.2,1.31,4.39,4.39,0,0,0-1.29,3.24,4.52,4.52,0,0,0,4.36,4.51,3.58,3.58,0,0,0,2.4-.91,3.18,3.18,0,0,0,1.19-2.17h-3Z" transform="translate(-33.16 -110.75)"/><path class="cls-1" d="M181.3,170.12h5v.4a8.35,8.35,0,0,1-.32,2.4,5.18,5.18,0,0,1-1.05,1.8,5.44,5.44,0,0,1-4.25,1.88,5.83,5.83,0,0,1-4.32-1.82,6.29,6.29,0,0,1,0-8.82,6.35,6.35,0,0,1,7.08-1.25,7.64,7.64,0,0,1,2.29,1.87l-1.29,1.23a4.36,4.36,0,0,0-3.6-2,4.31,4.31,0,0,0-3.19,1.31,4.39,4.39,0,0,0-1.29,3.24,4.5,4.5,0,0,0,4.35,4.51,3.58,3.58,0,0,0,2.4-.91,3.18,3.18,0,0,0,1.19-2.17h-3Z" transform="translate(-33.16 -110.75)"/><path class="cls-1" d="M195.27,164.37v10.3h3.53v1.71h-5.35v-12Z" transform="translate(-33.16 -110.75)"/><path class="cls-1" d="M199.43,170.32a5.93,5.93,0,0,1,1.85-4.36,6.15,6.15,0,0,1,4.45-1.82,6.28,6.28,0,0,1,6.25,6.25,5.9,5.9,0,0,1-1.85,4.39,6.36,6.36,0,0,1-8.67.2A5.9,5.9,0,0,1,199.43,170.32Zm1.82,0a4.36,4.36,0,0,0,1.34,3.28,4.43,4.43,0,0,0,6.26,0,4.66,4.66,0,0,0,0-6.44,4.25,4.25,0,0,0-3.16-1.3,4.42,4.42,0,0,0-4.46,4.49Z" transform="translate(-33.16 -110.75)"/><path class="cls-1" d="M217.14,166.07v10.31h-1.81V166.07h-2.76v-1.7h7.33v1.7Z" transform="translate(-33.16 -110.75)"/><path class="cls-1" d="M224.83,166.07v10.31H223V166.07h-2.76v-1.7h7.33v1.7Z" transform="translate(-33.16 -110.75)"/><path class="cls-1" d="M235.82,166.07H231V169h4.67v1.7H231v4h4.81v1.71H229.2v-12h6.62Z" transform="translate(-33.16 -110.75)"/><path class="cls-1" d="M242.27,171.26l3.72,5.12h-2.22l-3.43-4.92H240v4.92H238.2v-12h2.12a5.33,5.33,0,0,1,3.44.89,3.29,3.29,0,0,1,1.17,2.63,3.49,3.49,0,0,1-.73,2.2A3.26,3.26,0,0,1,242.27,171.26ZM240,169.88h.58c1.71,0,2.57-.65,2.57-2s-.83-1.85-2.5-1.85H240Z" transform="translate(-33.16 -110.75)"/><path class="cls-1" d="M249.69,171.19l-3.92-6.82h2.08l2.75,4.8,2.75-4.8h2.09l-3.94,6.82v5.19h-1.81Z" transform="translate(-33.16 -110.75)"/></svg>